# xmcd
#
# Track frame offsets:
#	150
#	18189
#	41387
#	69165
#	90950
#	116994
#	135928
#	164202
#	183073
#	205765
#	226179
#	246253
#	261143
#	275271
#	297740
#	316114
#	335499
#
# Disc length: 4527 seconds
#
# Revision: 0
# Processed by: cddbd v1.5.1PL0 Copyright (c) Steve Scherf et al.
# Submitted via: dBpowerAMP V4.0
#
DISCID=e711ad11
DTITLE=mISC - SURVIVOR
DYEAR=1900
DGENRE=
TTITLE0=AH NI KURIA
TTITLE1=FLOWER
TTITLE2=TIN CHEEJHAN
TTITLE3=JAAN JAAN DE KHATRA
TTITLE4=BOLIYAN
TTITLE5=DUSHMANI
TTITLE6=NACHIYEH VEH
TTITLE7=NACHNA
TTITLE8=Track09MELE VICH JATT
TTITLE9=KHUSHIAN
TTITLE10=NACHDEY
TTITLE11=DIL GORIYA
TTITLE12=JOGIYA
TTITLE13=KURT I MAL MAL DI
TTITLE14=BADULLA
TTITLE15=HOR GLASSY
TTITLE16=OUTRO
EXTD=
EXTT0=
EXTT1=
EXTT2=
EXTT3=
EXTT4=
EXTT5=
EXTT6=
EXTT7=
EXTT8=
EXTT9=
EXTT10=
EXTT11=
EXTT12=
EXTT13=
EXTT14=
EXTT15=
EXTT16=
PLAYORDER=
